<svg width="200" height="200" viewBox="0 0 200 200" xmlns="http://www.w3.org/2000/svg">
  <defs>
    <linearGradient id="bg-gradient-arif" x1="0%" y1="0%" x2="100%" y2="100%">
      <stop offset="0%" style="stop-color:#10b981;stop-opacity:1" />
      <stop offset="100%" style="stop-color:#059669;stop-opacity:1" />
    </linearGradient>
    <linearGradient id="face-gradient-arif" x1="0%" y1="0%" x2="100%" y2="100%">
      <stop offset="0%" style="stop-color:#fcd34d;stop-opacity:1" />
      <stop offset="100%" style="stop-color:#f59e0b;stop-opacity:1" />
    </linearGradient>
  </defs>
  
  <!-- Background circle -->
  <circle cx="100" cy="100" r="98" fill="url(#bg-gradient-arif)" stroke="#e5e7eb" stroke-width="2"/>
  
  <!-- Face -->
  <circle cx="100" cy="90" r="45" fill="url(#face-gradient-arif)"/>
  
  <!-- Hair -->
  <path d="M65 65 Q100 45 135 65 Q140 70 135 80 L65 80 Q60 70 65 65" fill="#065f46"/>
  
  <!-- Eyes -->
  <circle cx="85" cy="85" r="4" fill="#1f2937"/>
  <circle cx="115" cy="85" r="4" fill="#1f2937"/>
  
  <!-- Eyebrows -->
  <path d="M80 80 Q85 78 90 80" stroke="#065f46" stroke-width="2" fill="none"/>
  <path d="M110 80 Q115 78 120 80" stroke="#065f46" stroke-width="2" fill="none"/>
  
  <!-- Smile -->
  <path d="M85 100 Q100 110 115 100" stroke="#1f2937" stroke-width="3" fill="none" stroke-linecap="round"/>
  
  <!-- Backend icon (server representation) -->
  <g transform="translate(140, 140)">
    <rect x="-15" y="-10" width="30" height="20" rx="2" fill="white" stroke="#059669" stroke-width="2"/>
    <rect x="-10" y="-5" width="20" height="2" fill="#059669"/>
    <rect x="-10" y="-1" width="20" height="2" fill="#059669"/>
    <rect x="-10" y="3" width="20" height="2" fill="#059669"/>
  </g>
</svg>