<svg width="200" height="200" viewBox="0 0 200 200" xmlns="http://www.w3.org/2000/svg">
  <defs>
    <linearGradient id="bg-gradient-ramzy" x1="0%" y1="0%" x2="100%" y2="100%">
      <stop offset="0%" style="stop-color:#ef4444;stop-opacity:1" />
      <stop offset="100%" style="stop-color:#dc2626;stop-opacity:1" />
    </linearGradient>
    <linearGradient id="face-gradient-ramzy" x1="0%" y1="0%" x2="100%" y2="100%">
      <stop offset="0%" style="stop-color:#fbbf24;stop-opacity:1" />
      <stop offset="100%" style="stop-color:#f59e0b;stop-opacity:1" />
    </linearGradient>
  </defs>
  
  <!-- Background circle -->
  <circle cx="100" cy="100" r="98" fill="url(#bg-gradient-ramzy)" stroke="#e5e7eb" stroke-width="2"/>
  
  <!-- Face -->
  <circle cx="100" cy="90" r="45" fill="url(#face-gradient-ramzy)"/>
  
  <!-- Hair -->
  <path d="M65 65 Q100 45 135 65 Q140 70 135 80 L65 80 Q60 70 65 65" fill="#7f1d1d"/>
  
  <!-- Eyes -->
  <circle cx="85" cy="85" r="4" fill="#1f2937"/>
  <circle cx="115" cy="85" r="4" fill="#1f2937"/>
  
  <!-- Eyebrows -->
  <path d="M80 80 Q85 78 90 80" stroke="#7f1d1d" stroke-width="2" fill="none"/>
  <path d="M110 80 Q115 78 120 80" stroke="#7f1d1d" stroke-width="2" fill="none"/>
  
  <!-- Serious expression -->
  <line x1="85" y1="100" x2="95" y2="100" stroke="#1f2937" stroke-width="3" stroke-linecap="round"/>
  <line x1="105" y1="100" x2="115" y2="100" stroke="#1f2937" stroke-width="3" stroke-linecap="round"/>
  
  <!-- Security shield icon -->
  <g transform="translate(140, 140)">
    <path d="M0,-15 L-12,-5 L-12,10 L0,20 L12,10 L12,-5 Z" fill="white" stroke="#dc2626" stroke-width="2"/>
    <path d="M0,-10 L0,15" stroke="#dc2626" stroke-width="2"/>
    <path d="M-8,0 L8,0" stroke="#dc2626" stroke-width="2"/>
  </g>
</svg>